<?xml version="1.0" standalone="no"?>
<!DOCTYPE svg PUBLIC "-//W3C//DTD SVG 20010904//EN"
 "http://www.w3.org/TR/2001/REC-SVG-20010904/DTD/svg10.dtd">
<svg version="1.0" xmlns="http://www.w3.org/2000/svg"
 width="16.000000pt" height="16.000000pt" viewBox="0 0 16.000000 16.000000"
 preserveAspectRatio="xMidYMid meet">
<metadata>
Created by potrace 1.11, written by Peter Selinger 2001-2013
</metadata>
<g transform="translate(0.000000,16.000000) scale(0.002254,-0.002254)"
fill="#000000" stroke="none">
<path d="M3295 6604 c-335 -25 -592 -62 -652 -93 -37 -18 -113 -94 -113 -112
0 -4 -39 -28 -87 -54 -129 -70 -234 -147 -346 -254 -350 -336 -557 -801 -644
-1447 -25 -188 -25 -729 1 -939 34 -283 35 -286 97 -344 32 -30 63 -50 77 -51
15 0 37 -16 60 -42 68 -79 132 -133 204 -173 l72 -40 11 -67 c13 -83 52 -142
115 -176 42 -22 52 -24 152 -18 196 11 262 33 312 104 22 32 31 56 34 99 4 61
-143 1571 -159 1636 -21 83 -111 146 -207 147 -95 0 -245 -21 -282 -40 -81
-41 -127 -129 -117 -219 7 -59 -4 -77 -76 -133 -66 -52 -85 -57 -110 -30 -21
23 -22 73 -2 211 101 695 403 1217 857 1482 73 43 93 46 155 24 39 -14 57 -13
210 10 280 40 406 49 683 49 277 0 403 -9 683 -49 153 -23 171 -24 210 -10 23
8 50 15 60 15 41 0 175 -84 301 -189 252 -211 461 -564 569 -961 39 -140 83
-376 93 -491 6 -76 6 -77 -21 -95 -25 -17 -29 -17 -58 -1 -18 10 -53 37 -79
61 l-48 44 0 76 c0 158 -64 216 -259 237 -152 16 -211 10 -263 -27 -83 -58
-77 -27 -167 -927 -92 -912 -91 -868 -15 -943 51 -52 80 -60 250 -76 130 -12
131 -12 180 13 60 30 110 93 119 151 15 99 12 95 88 135 52 27 96 62 158 125
61 62 94 88 111 88 15 0 42 19 77 54 53 54 54 56 67 143 36 239 47 404 48 673
0 297 -13 451 -60 698 -128 680 -474 1217 -942 1461 -61 31 -89 52 -107 80
-31 50 -87 95 -133 109 -42 12 -286 47 -442 62 -108 11 -576 21 -665 14z"/>
<path d="M3171 5133 c-15 -52 -15 -2294 0 -2345 8 -31 15 -38 34 -38 18 0 27
7 32 28 10 35 10 2329 0 2365 -5 20 -14 27 -32 27 -19 0 -26 -7 -34 -37z"/>
<path d="M3871 5133 c-12 -43 -14 -2311 -2 -2353 5 -17 15 -26 33 -28 24 -3
28 1 35 35 10 49 11 2296 0 2346 -6 30 -12 37 -32 37 -19 0 -26 -7 -34 -37z"/>
<path d="M2913 4493 c-10 -36 -10 -1030 0 -1065 5 -21 14 -28 32 -28 42 0 45
38 45 560 0 522 -3 560 -45 560 -18 0 -27 -7 -32 -27z"/>
<path d="M4133 4508 c-11 -17 -16 -1029 -5 -1070 10 -38 39 -49 59 -22 17 23
19 1053 3 1085 -12 21 -45 25 -57 7z"/>
<path d="M2657 4243 c-17 -41 -17 -540 1 -570 15 -27 34 -29 53 -6 11 13 14
73 14 293 0 220 -3 280 -14 293 -20 25 -40 21 -54 -10z"/>
<path d="M3439 4253 c-20 -24 -20 -562 0 -586 19 -23 38 -21 53 6 18 31 18
530 1 570 -14 31 -34 35 -54 10z"/>
<path d="M3618 4248 c-10 -17 -13 -92 -13 -295 0 -241 2 -274 17 -289 9 -9 23
-14 32 -11 30 12 38 83 34 331 -3 245 -9 286 -43 286 -8 0 -20 -10 -27 -22z"/>
<path d="M4399 4254 c-11 -13 -15 -73 -17 -284 -2 -164 1 -277 7 -293 14 -36
48 -36 61 -1 15 39 13 533 -3 563 -16 31 -30 36 -48 15z"/>
<path d="M2493 2520 c-205 -42 -275 -292 -119 -427 22 -18 57 -39 78 -45 21
-6 38 -14 38 -18 0 -4 -18 -12 -41 -19 -125 -37 -196 -203 -140 -326 32 -71
123 -143 186 -145 11 -1 -3 -9 -31 -19 -78 -27 -129 -73 -159 -145 -19 -44
-19 -136 -1 -180 21 -51 76 -107 131 -132 l50 -24 1045 0 c689 0 1058 4 1082
10 96 27 178 135 178 234 0 61 -33 138 -77 179 -17 15 -55 38 -86 51 l-55 22
44 12 c59 16 126 79 154 144 44 102 8 224 -84 287 -23 16 -55 33 -69 37 -34 8
-34 20 0 28 45 12 111 65 139 111 57 98 37 224 -48 301 -82 74 3 69 -1143 71
-566 0 -1049 -3 -1072 -7z"/>
<path d="M2750 930 c0 -5 37 -47 83 -93 132 -133 278 -218 465 -269 63 -17
107 -21 237 -22 145 -1 169 2 258 26 110 31 234 90 322 153 58 41 190 168 207
200 8 13 -74 15 -782 15 -517 0 -790 -3 -790 -10z"/>
</g>
</svg>
